<svg xmlns="http://www.w3.org/2000/svg" width="920" height="560" viewBox="0 0 920 560" fill="none">
  <defs>
    <linearGradient id="g1" x1="0" y1="0" x2="920" y2="560" gradientUnits="userSpaceOnUse">
      <stop offset="0" stop-color="#1fd7b0" stop-opacity="0.22"/>
      <stop offset="0.55" stop-color="#3f7cff" stop-opacity="0.18"/>
      <stop offset="1" stop-color="#ffb020" stop-opacity="0.10"/>
    </linearGradient>
    <linearGradient id="g2" x1="0" y1="0" x2="920" y2="0" gradientUnits="userSpaceOnUse">
      <stop offset="0" stop-color="#1fd7b0"/>
      <stop offset="1" stop-color="#3f7cff"/>
    </linearGradient>
    <filter id="shadow" x="-20" y="-20" width="960" height="600" filterUnits="userSpaceOnUse" color-interpolation-filters="sRGB">
      <feDropShadow dx="0" dy="16" stdDeviation="18" flood-color="#0b1020" flood-opacity="0.14"/>
    </filter>
  </defs>

  <rect x="24" y="18" width="872" height="524" rx="22" fill="#ffffff" stroke="#e6e8f5" filter="url(#shadow)"/>

  <!-- Top bar -->
  <rect x="24" y="18" width="872" height="56" rx="22" fill="url(#g1)"/>
  <rect x="24" y="52" width="872" height="22" fill="#ffffff" fill-opacity="0.82"/>
  <rect x="48" y="36" width="180" height="18" rx="9" fill="#0b1020" fill-opacity="0.08"/>
  <rect x="686" y="36" width="86" height="18" rx="9" fill="#0b1020" fill-opacity="0.08"/>
  <rect x="784" y="36" width="86" height="18" rx="9" fill="#0b1020" fill-opacity="0.08"/>

  <!-- Left list -->
  <rect x="48" y="96" width="288" height="420" rx="18" fill="#fbfcff" stroke="#eef0fb"/>
  <rect x="70" y="118" width="242" height="14" rx="7" fill="#0b1020" fill-opacity="0.10"/>
  <rect x="70" y="144" width="192" height="10" rx="5" fill="#0b1020" fill-opacity="0.06"/>

  <!-- list rows -->
  <g>
    <rect x="66" y="174" width="252" height="58" rx="14" fill="#ffffff" stroke="#eef0fb"/>
    <circle cx="86" cy="203" r="6" fill="#1fd7b0"/>
    <rect x="100" y="190" width="170" height="10" rx="5" fill="#0b1020" fill-opacity="0.12"/>
    <rect x="100" y="208" width="118" height="8" rx="4" fill="#0b1020" fill-opacity="0.06"/>
    <rect x="248" y="202" width="56" height="16" rx="8" fill="#1fd7b0" fill-opacity="0.14" stroke="#1fd7b0" stroke-opacity="0.35"/>
  </g>
  <g>
    <rect x="66" y="242" width="252" height="58" rx="14" fill="#ffffff" stroke="#eef0fb"/>
    <circle cx="86" cy="271" r="6" fill="#3f7cff"/>
    <rect x="100" y="258" width="156" height="10" rx="5" fill="#0b1020" fill-opacity="0.12"/>
    <rect x="100" y="276" width="142" height="8" rx="4" fill="#0b1020" fill-opacity="0.06"/>
    <rect x="244" y="270" width="60" height="16" rx="8" fill="#3f7cff" fill-opacity="0.14" stroke="#3f7cff" stroke-opacity="0.35"/>
  </g>
  <g>
    <rect x="66" y="310" width="252" height="58" rx="14" fill="#ffffff" stroke="#eef0fb"/>
    <circle cx="86" cy="339" r="6" fill="#ffb020"/>
    <rect x="100" y="326" width="178" height="10" rx="5" fill="#0b1020" fill-opacity="0.12"/>
    <rect x="100" y="344" width="98" height="8" rx="4" fill="#0b1020" fill-opacity="0.06"/>
    <rect x="248" y="338" width="56" height="16" rx="8" fill="#ffb020" fill-opacity="0.16" stroke="#ffb020" stroke-opacity="0.35"/>
  </g>
  <g>
    <rect x="66" y="378" width="252" height="58" rx="14" fill="#ffffff" stroke="#eef0fb"/>
    <circle cx="86" cy="407" r="6" fill="#0b1020" fill-opacity="0.22"/>
    <rect x="100" y="394" width="152" height="10" rx="5" fill="#0b1020" fill-opacity="0.12"/>
    <rect x="100" y="412" width="136" height="8" rx="4" fill="#0b1020" fill-opacity="0.06"/>
    <rect x="244" y="406" width="60" height="16" rx="8" fill="#0b1020" fill-opacity="0.06" stroke="#0b1020" stroke-opacity="0.10"/>
  </g>

  <!-- Right detail -->
  <rect x="362" y="96" width="510" height="420" rx="18" fill="#ffffff" stroke="#eef0fb"/>
  <rect x="386" y="118" width="232" height="16" rx="8" fill="#0b1020" fill-opacity="0.12"/>
  <rect x="386" y="144" width="320" height="10" rx="5" fill="#0b1020" fill-opacity="0.06"/>

  <!-- Score tiles -->
  <rect x="386" y="174" width="146" height="78" rx="16" fill="#fbfcff" stroke="#eef0fb"/>
  <rect x="402" y="192" width="80" height="10" rx="5" fill="#0b1020" fill-opacity="0.08"/>
  <rect x="402" y="210" width="48" height="26" rx="13" fill="#1fd7b0" fill-opacity="0.18" stroke="#1fd7b0" stroke-opacity="0.35"/>

  <rect x="548" y="174" width="146" height="78" rx="16" fill="#fbfcff" stroke="#eef0fb"/>
  <rect x="564" y="192" width="80" height="10" rx="5" fill="#0b1020" fill-opacity="0.08"/>
  <rect x="564" y="210" width="48" height="26" rx="13" fill="#3f7cff" fill-opacity="0.18" stroke="#3f7cff" stroke-opacity="0.35"/>

  <rect x="710" y="174" width="146" height="78" rx="16" fill="#fbfcff" stroke="#eef0fb"/>
  <rect x="726" y="192" width="80" height="10" rx="5" fill="#0b1020" fill-opacity="0.08"/>
  <rect x="726" y="210" width="48" height="26" rx="13" fill="#ffb020" fill-opacity="0.18" stroke="#ffb020" stroke-opacity="0.35"/>

  <!-- Evidence pack -->
  <rect x="386" y="272" width="470" height="118" rx="18" fill="url(#g1)" stroke="#eef0fb"/>
  <rect x="386" y="302" width="470" height="88" rx="0" fill="#ffffff" fill-opacity="0.84"/>
  <rect x="406" y="290" width="142" height="10" rx="5" fill="#0b1020" fill-opacity="0.10"/>
  <rect x="406" y="316" width="240" height="10" rx="5" fill="#0b1020" fill-opacity="0.08"/>
  <rect x="406" y="336" width="214" height="10" rx="5" fill="#0b1020" fill-opacity="0.08"/>
  <rect x="406" y="356" width="270" height="10" rx="5" fill="#0b1020" fill-opacity="0.08"/>

  <!-- Proof-of-work link -->
  <rect x="386" y="406" width="470" height="86" rx="18" fill="#fbfcff" stroke="#eef0fb"/>
  <rect x="406" y="428" width="164" height="10" rx="5" fill="#0b1020" fill-opacity="0.10"/>
  <rect x="406" y="448" width="318" height="10" rx="5" fill="#0b1020" fill-opacity="0.06"/>
  <rect x="406" y="468" width="214" height="10" rx="5" fill="#0b1020" fill-opacity="0.06"/>
  <rect x="742" y="430" width="94" height="28" rx="14" fill="url(#g2)" fill-opacity="0.18" stroke="url(#g2)" stroke-opacity="0.35"/>
</svg>

